# xmcd CD database file
#
# Track frame offsets:
#	150
#	25453
#	39368
#	70880
#	95156
#	122207
#	150266
#	176043
#	202090
#	227948
#	257425
#	289699
#
# Disc length: 4214 seconds
#
# Revision: 0
# Processed by: cddbd v1.5.2PL0 Copyright (c) Steve Scherf et al.
# Submitted via: CDex 1.79
#
DISCID=a910740c
DTITLE=Various Artist - The Ultimate Most Relaxing Jazz Music in the Universe - Disc 2
DYEAR=2007
DGENRE=Jazz
TTITLE0=Hubert Laws - Kiss
TTITLE1=Marian McPartland - All My Life
TTITLE2=Sam Jones - You Are The Sunshine of My Life
TTITLE3=Houston Person - My Romance
TTITLE4=Kenny Barron - Golden Lotus
TTITLE5=Darrell Grant - My Old Flame
TTITLE6=Pat Martino - Road Song
TTITLE7=Kenny Burrell - It Could Happen to You
TTITLE8=The Drummonds - When You Wish Upon a Star
TTITLE9=Hank Jones - 'Round Midnight
TTITLE10=Bobby Hutcherson - Del Valle
TTITLE11=Eliane Elias - Moments
EXTD=YEAR: 2007
EXTT0=
EXTT1=
EXTT2=
EXTT3=
EXTT4=
EXTT5=
EXTT6=
EXTT7=
EXTT8=
EXTT9=
EXTT10=
EXTT11=
PLAYORDER=
